<?xml version="1.0" encoding="UTF-8" standalone="no"?>
<!DOCTYPE svg PUBLIC "-//W3C//DTD SVG 1.1//EN"
 "http://www.w3.org/Graphics/SVG/1.1/DTD/svg11.dtd">
<!-- Generated by graphviz version 10.0.1 (0)
 -->
<!-- Pages: 1 -->
<svg width="2189pt" height="1279pt"
 viewBox="0.00 0.00 2189.26 1278.85" xmlns="http://www.w3.org/2000/svg" xmlns:xlink="http://www.w3.org/1999/xlink">
<g id="graph0" class="graph" transform="scale(1 1) rotate(0) translate(4 1274.85)">
<polygon fill="white" stroke="none" points="-4,4 -4,-1274.85 2185.26,-1274.85 2185.26,4 -4,4"/>
<g id="clust1" class="cluster">
<title>cluster_headers</title>
<polygon fill="lightgrey" stroke="lightgrey" points="1299.61,-54.85 1299.61,-1262.85 2173.26,-1262.85 2173.26,-54.85 1299.61,-54.85"/>
<text text-anchor="middle" x="1736.44" y="-1245.55" font-family="Helvetica,Arial,sans-serif" font-size="14.00">Headers</text>
</g>
<!-- include/dt&#45;bindings/pinctrl/qcom,pmic&#45;gpio.h -->
<g id="node1" class="node">
<title>include/dt&#45;bindings/pinctrl/qcom,pmic&#45;gpio.h</title>
<ellipse fill="white" stroke="white" cx="1526.28" cy="-260.85" rx="198.52" ry="20.51"/>
<text text-anchor="middle" x="1526.28" y="-258.05" font-family="Helvetica,Arial,sans-serif" font-size="14.00">include/dt&#45;bindings/pinctrl/qcom,pmic&#45;gpio.h</text>
</g>
<!-- include/dt&#45;bindings/input/input.h -->
<g id="node2" class="node">
<title>include/dt&#45;bindings/input/input.h</title>
<ellipse fill="white" stroke="white" cx="1526.28" cy="-201.85" rx="145.49" ry="20.51"/>
<text text-anchor="middle" x="1526.28" y="-199.05" font-family="Helvetica,Arial,sans-serif" font-size="14.00">include/dt&#45;bindings/input/input.h</text>
</g>
<!-- include/uapi/linux/input&#45;event&#45;codes.h -->
<g id="node4" class="node">
<title>include/uapi/linux/input&#45;event&#45;codes.h</title>
<ellipse fill="white" stroke="white" cx="1973.11" cy="-201.85" rx="170.94" ry="20.51"/>
<text text-anchor="middle" x="1973.11" y="-199.05" font-family="Helvetica,Arial,sans-serif" font-size="14.00">include/uapi/linux/input&#45;event&#45;codes.h</text>
</g>
<!-- include/dt&#45;bindings/input/input.h&#45;&gt;include/uapi/linux/input&#45;event&#45;codes.h -->
<g id="edge26" class="edge">
<title>include/dt&#45;bindings/input/input.h&#45;&gt;include/uapi/linux/input&#45;event&#45;codes.h</title>
<path fill="none" stroke="black" d="M1672.01,-201.85C1709.83,-201.85 1751.08,-201.85 1790.55,-201.85"/>
<polygon fill="black" stroke="black" points="1790.39,-205.35 1800.39,-201.85 1790.39,-198.35 1790.39,-205.35"/>
</g>
<!-- include/dt&#45;bindings/spmi/spmi.h -->
<g id="node3" class="node">
<title>include/dt&#45;bindings/spmi/spmi.h</title>
<ellipse fill="white" stroke="white" cx="1526.28" cy="-142.85" rx="145.49" ry="20.51"/>
<text text-anchor="middle" x="1526.28" y="-140.05" font-family="Helvetica,Arial,sans-serif" font-size="14.00">include/dt&#45;bindings/spmi/spmi.h</text>
</g>
<!-- include/dt&#45;bindings/iio/qcom,spmi&#45;vadc.h -->
<g id="node5" class="node">
<title>include/dt&#45;bindings/iio/qcom,spmi&#45;vadc.h</title>
<ellipse fill="white" stroke="white" cx="1526.28" cy="-83.85" rx="184.73" ry="20.51"/>
<text text-anchor="middle" x="1526.28" y="-81.05" font-family="Helvetica,Arial,sans-serif" font-size="14.00">include/dt&#45;bindings/iio/qcom,spmi&#45;vadc.h</text>
</g>
<!-- include/dt&#45;bindings/interrupt&#45;controller/irq.h -->
<g id="node6" class="node">
<title>include/dt&#45;bindings/interrupt&#45;controller/irq.h</title>
<ellipse fill="white" stroke="white" cx="1973.11" cy="-83.85" rx="192.16" ry="20.51"/>
<text text-anchor="middle" x="1973.11" y="-81.05" font-family="Helvetica,Arial,sans-serif" font-size="14.00">include/dt&#45;bindings/interrupt&#45;controller/irq.h</text>
</g>
<!-- include/dt&#45;bindings/clock/qcom,dispcc&#45;sm6350.h -->
<g id="node7" class="node">
<title>include/dt&#45;bindings/clock/qcom,dispcc&#45;sm6350.h</title>
<ellipse fill="white" stroke="white" cx="1526.28" cy="-850.85" rx="217.61" ry="20.51"/>
<text text-anchor="middle" x="1526.28" y="-848.05" font-family="Helvetica,Arial,sans-serif" font-size="14.00">include/dt&#45;bindings/clock/qcom,dispcc&#45;sm6350.h</text>
</g>
<!-- include/dt&#45;bindings/clock/qcom,gcc&#45;sm6350.h -->
<g id="node8" class="node">
<title>include/dt&#45;bindings/clock/qcom,gcc&#45;sm6350.h</title>
<ellipse fill="white" stroke="white" cx="1526.28" cy="-909.85" rx="205.41" ry="20.51"/>
<text text-anchor="middle" x="1526.28" y="-907.05" font-family="Helvetica,Arial,sans-serif" font-size="14.00">include/dt&#45;bindings/clock/qcom,gcc&#45;sm6350.h</text>
</g>
<!-- include/dt&#45;bindings/clock/qcom,gpucc&#45;sm6350.h -->
<g id="node9" class="node">
<title>include/dt&#45;bindings/clock/qcom,gpucc&#45;sm6350.h</title>
<ellipse fill="white" stroke="white" cx="1526.28" cy="-968.85" rx="216.02" ry="20.51"/>
<text text-anchor="middle" x="1526.28" y="-966.05" font-family="Helvetica,Arial,sans-serif" font-size="14.00">include/dt&#45;bindings/clock/qcom,gpucc&#45;sm6350.h</text>
</g>
<!-- include/dt&#45;bindings/clock/qcom,rpmh.h -->
<g id="node10" class="node">
<title>include/dt&#45;bindings/clock/qcom,rpmh.h</title>
<ellipse fill="white" stroke="white" cx="1526.28" cy="-1027.85" rx="175.19" ry="20.51"/>
<text text-anchor="middle" x="1526.28" y="-1025.05" font-family="Helvetica,Arial,sans-serif" font-size="14.00">include/dt&#45;bindings/clock/qcom,rpmh.h</text>
</g>
<!-- include/dt&#45;bindings/clock/qcom,sm6350&#45;camcc.h -->
<g id="node11" class="node">
<title>include/dt&#45;bindings/clock/qcom,sm6350&#45;camcc.h</title>
<ellipse fill="white" stroke="white" cx="1526.28" cy="-1086.85" rx="218.67" ry="20.51"/>
<text text-anchor="middle" x="1526.28" y="-1084.05" font-family="Helvetica,Arial,sans-serif" font-size="14.00">include/dt&#45;bindings/clock/qcom,sm6350&#45;camcc.h</text>
</g>
<!-- include/dt&#45;bindings/dma/qcom&#45;gpi.h -->
<g id="node12" class="node">
<title>include/dt&#45;bindings/dma/qcom&#45;gpi.h</title>
<ellipse fill="white" stroke="white" cx="1526.28" cy="-1145.85" rx="163.52" ry="20.51"/>
<text text-anchor="middle" x="1526.28" y="-1143.05" font-family="Helvetica,Arial,sans-serif" font-size="14.00">include/dt&#45;bindings/dma/qcom&#45;gpi.h</text>
</g>
<!-- include/dt&#45;bindings/gpio/gpio.h -->
<g id="node13" class="node">
<title>include/dt&#45;bindings/gpio/gpio.h</title>
<ellipse fill="white" stroke="white" cx="1526.28" cy="-1204.85" rx="140.18" ry="20.51"/>
<text text-anchor="middle" x="1526.28" y="-1202.05" font-family="Helvetica,Arial,sans-serif" font-size="14.00">include/dt&#45;bindings/gpio/gpio.h</text>
</g>
<!-- include/dt&#45;bindings/interconnect/qcom,icc.h -->
<g id="node14" class="node">
<title>include/dt&#45;bindings/interconnect/qcom,icc.h</title>
<ellipse fill="white" stroke="white" cx="1526.28" cy="-378.85" rx="194.81" ry="20.51"/>
<text text-anchor="middle" x="1526.28" y="-376.05" font-family="Helvetica,Arial,sans-serif" font-size="14.00">include/dt&#45;bindings/interconnect/qcom,icc.h</text>
</g>
<!-- include/dt&#45;bindings/interconnect/qcom,osm&#45;l3.h -->
<g id="node15" class="node">
<title>include/dt&#45;bindings/interconnect/qcom,osm&#45;l3.h</title>
<ellipse fill="white" stroke="white" cx="1526.28" cy="-437.85" rx="212.31" ry="20.51"/>
<text text-anchor="middle" x="1526.28" y="-435.05" font-family="Helvetica,Arial,sans-serif" font-size="14.00">include/dt&#45;bindings/interconnect/qcom,osm&#45;l3.h</text>
</g>
<!-- include/dt&#45;bindings/interconnect/qcom,sm6350.h -->
<g id="node16" class="node">
<title>include/dt&#45;bindings/interconnect/qcom,sm6350.h</title>
<ellipse fill="white" stroke="white" cx="1526.28" cy="-496.85" rx="217.61" ry="20.51"/>
<text text-anchor="middle" x="1526.28" y="-494.05" font-family="Helvetica,Arial,sans-serif" font-size="14.00">include/dt&#45;bindings/interconnect/qcom,sm6350.h</text>
</g>
<!-- include/dt&#45;bindings/interrupt&#45;controller/arm&#45;gic.h -->
<g id="node17" class="node">
<title>include/dt&#45;bindings/interrupt&#45;controller/arm&#45;gic.h</title>
<ellipse fill="white" stroke="white" cx="1526.28" cy="-319.85" rx="213.9" ry="20.51"/>
<text text-anchor="middle" x="1526.28" y="-317.05" font-family="Helvetica,Arial,sans-serif" font-size="14.00">include/dt&#45;bindings/interrupt&#45;controller/arm&#45;gic.h</text>
</g>
<!-- include/dt&#45;bindings/interrupt&#45;controller/arm&#45;gic.h&#45;&gt;include/dt&#45;bindings/interrupt&#45;controller/irq.h -->
<g id="edge32" class="edge">
<title>include/dt&#45;bindings/interrupt&#45;controller/arm&#45;gic.h&#45;&gt;include/dt&#45;bindings/interrupt&#45;controller/irq.h</title>
<path fill="none" stroke="black" d="M1715.03,-309.89C1725.77,-304.83 1735.88,-298.57 1744.95,-290.85 1787.05,-255.05 1744.66,-213.52 1780.95,-171.85 1807.82,-141.01 1847.74,-120.31 1884.16,-106.79"/>
<polygon fill="black" stroke="black" points="1885.16,-110.15 1893.41,-103.49 1882.81,-103.55 1885.16,-110.15"/>
</g>
<!-- include/dt&#45;bindings/mailbox/qcom&#45;ipcc.h -->
<g id="node18" class="node">
<title>include/dt&#45;bindings/mailbox/qcom&#45;ipcc.h</title>
<ellipse fill="white" stroke="white" cx="1526.28" cy="-555.85" rx="182.08" ry="20.51"/>
<text text-anchor="middle" x="1526.28" y="-553.05" font-family="Helvetica,Arial,sans-serif" font-size="14.00">include/dt&#45;bindings/mailbox/qcom&#45;ipcc.h</text>
</g>
<!-- include/dt&#45;bindings/phy/phy&#45;qcom&#45;qmp.h -->
<g id="node19" class="node">
<title>include/dt&#45;bindings/phy/phy&#45;qcom&#45;qmp.h</title>
<ellipse fill="white" stroke="white" cx="1526.28" cy="-614.85" rx="184.73" ry="20.51"/>
<text text-anchor="middle" x="1526.28" y="-612.05" font-family="Helvetica,Arial,sans-serif" font-size="14.00">include/dt&#45;bindings/phy/phy&#45;qcom&#45;qmp.h</text>
</g>
<!-- include/dt&#45;bindings/power/qcom&#45;rpmpd.h -->
<g id="node20" class="node">
<title>include/dt&#45;bindings/power/qcom&#45;rpmpd.h</title>
<ellipse fill="white" stroke="white" cx="1526.28" cy="-673.85" rx="185.26" ry="20.51"/>
<text text-anchor="middle" x="1526.28" y="-671.05" font-family="Helvetica,Arial,sans-serif" font-size="14.00">include/dt&#45;bindings/power/qcom&#45;rpmpd.h</text>
</g>
<!-- include/dt&#45;bindings/soc/qcom,rpmh&#45;rsc.h -->
<g id="node21" class="node">
<title>include/dt&#45;bindings/soc/qcom,rpmh&#45;rsc.h</title>
<ellipse fill="white" stroke="white" cx="1526.28" cy="-732.85" rx="184.2" ry="20.51"/>
<text text-anchor="middle" x="1526.28" y="-730.05" font-family="Helvetica,Arial,sans-serif" font-size="14.00">include/dt&#45;bindings/soc/qcom,rpmh&#45;rsc.h</text>
</g>
<!-- include/dt&#45;bindings/thermal/thermal.h -->
<g id="node22" class="node">
<title>include/dt&#45;bindings/thermal/thermal.h</title>
<ellipse fill="white" stroke="white" cx="1526.28" cy="-791.85" rx="168.82" ry="20.51"/>
<text text-anchor="middle" x="1526.28" y="-789.05" font-family="Helvetica,Arial,sans-serif" font-size="14.00">include/dt&#45;bindings/thermal/thermal.h</text>
</g>
<!-- arch/arm64/boot/dts/qcom/sm6350.dtsi -->
<g id="node23" class="node">
<title>arch/arm64/boot/dts/qcom/sm6350.dtsi</title>
<ellipse fill="none" stroke="black" cx="1087.41" cy="-732.85" rx="178.37" ry="20.51"/>
<text text-anchor="middle" x="1087.41" y="-730.05" font-family="Helvetica,Arial,sans-serif" font-size="14.00">arch/arm64/boot/dts/qcom/sm6350.dtsi</text>
</g>
<!-- arch/arm64/boot/dts/qcom/sm6350.dtsi&#45;&gt;include/dt&#45;bindings/clock/qcom,dispcc&#45;sm6350.h -->
<g id="edge27" class="edge">
<title>arch/arm64/boot/dts/qcom/sm6350.dtsi&#45;&gt;include/dt&#45;bindings/clock/qcom,dispcc&#45;sm6350.h</title>
<path fill="none" stroke="black" d="M1127.75,-753.25C1169.33,-773.89 1237.37,-805.07 1299.61,-821.85 1318.19,-826.86 1337.86,-831.01 1357.55,-834.45"/>
<polygon fill="black" stroke="black" points="1356.87,-837.89 1367.32,-836.09 1358.03,-830.98 1356.87,-837.89"/>
</g>
<!-- arch/arm64/boot/dts/qcom/sm6350.dtsi&#45;&gt;include/dt&#45;bindings/clock/qcom,gcc&#45;sm6350.h -->
<g id="edge19" class="edge">
<title>arch/arm64/boot/dts/qcom/sm6350.dtsi&#45;&gt;include/dt&#45;bindings/clock/qcom,gcc&#45;sm6350.h</title>
<path fill="none" stroke="black" d="M1110.01,-753.52C1146.06,-786.62 1222.16,-850.85 1299.61,-880.85 1314.87,-886.76 1331.1,-891.52 1347.58,-895.34"/>
<polygon fill="black" stroke="black" points="1346.45,-898.67 1356.97,-897.39 1347.95,-891.83 1346.45,-898.67"/>
</g>
<!-- arch/arm64/boot/dts/qcom/sm6350.dtsi&#45;&gt;include/dt&#45;bindings/clock/qcom,gpucc&#45;sm6350.h -->
<g id="edge21" class="edge">
<title>arch/arm64/boot/dts/qcom/sm6350.dtsi&#45;&gt;include/dt&#45;bindings/clock/qcom,gpucc&#45;sm6350.h</title>
<path fill="none" stroke="black" d="M1102.39,-753.73C1132.59,-796.92 1208.6,-895.71 1299.61,-939.85 1311.27,-945.51 1323.65,-950.19 1336.37,-954.05"/>
<polygon fill="black" stroke="black" points="1335.1,-957.33 1345.67,-956.7 1337.01,-950.6 1335.1,-957.33"/>
</g>
<!-- arch/arm64/boot/dts/qcom/sm6350.dtsi&#45;&gt;include/dt&#45;bindings/clock/qcom,rpmh.h -->
<g id="edge31" class="edge">
<title>arch/arm64/boot/dts/qcom/sm6350.dtsi&#45;&gt;include/dt&#45;bindings/clock/qcom,rpmh.h</title>
<path fill="none" stroke="black" d="M1097.86,-753.62C1122.58,-805.26 1194.59,-939.58 1299.61,-998.85 1314.71,-1007.37 1331.26,-1013.82 1348.33,-1018.66"/>
<polygon fill="black" stroke="black" points="1346.99,-1021.93 1357.55,-1021.09 1348.77,-1015.16 1346.99,-1021.93"/>
</g>
<!-- arch/arm64/boot/dts/qcom/sm6350.dtsi&#45;&gt;include/dt&#45;bindings/clock/qcom,sm6350&#45;camcc.h -->
<g id="edge22" class="edge">
<title>arch/arm64/boot/dts/qcom/sm6350.dtsi&#45;&gt;include/dt&#45;bindings/clock/qcom,sm6350&#45;camcc.h</title>
<path fill="none" stroke="black" d="M1094.96,-753.7C1114.8,-812.94 1180.25,-982.83 1299.61,-1057.85 1308.39,-1063.37 1317.74,-1068.06 1327.46,-1072.04"/>
<polygon fill="black" stroke="black" points="1326.12,-1075.27 1336.71,-1075.54 1328.6,-1068.73 1326.12,-1075.27"/>
</g>
<!-- arch/arm64/boot/dts/qcom/sm6350.dtsi&#45;&gt;include/dt&#45;bindings/dma/qcom&#45;gpi.h -->
<g id="edge23" class="edge">
<title>arch/arm64/boot/dts/qcom/sm6350.dtsi&#45;&gt;include/dt&#45;bindings/dma/qcom&#45;gpi.h</title>
<path fill="none" stroke="black" d="M1092.83,-753.53C1108.13,-819.41 1165.34,-1025.41 1299.61,-1116.85 1315.44,-1127.63 1333.36,-1135.37 1352.03,-1140.83"/>
<polygon fill="black" stroke="black" points="1351.07,-1144.19 1361.63,-1143.39 1352.87,-1137.43 1351.07,-1144.19"/>
</g>
<!-- arch/arm64/boot/dts/qcom/sm6350.dtsi&#45;&gt;include/dt&#45;bindings/gpio/gpio.h -->
<g id="edge3" class="edge">
<title>arch/arm64/boot/dts/qcom/sm6350.dtsi&#45;&gt;include/dt&#45;bindings/gpio/gpio.h</title>
<path fill="none" stroke="black" d="M1091.27,-753.51C1102.45,-825.62 1150.21,-1067.64 1299.61,-1175.85 1322.2,-1192.21 1349.5,-1201.76 1377.2,-1207"/>
<polygon fill="black" stroke="black" points="1376.3,-1210.39 1386.75,-1208.61 1377.47,-1203.49 1376.3,-1210.39"/>
</g>
<!-- arch/arm64/boot/dts/qcom/sm6350.dtsi&#45;&gt;include/dt&#45;bindings/interconnect/qcom,icc.h -->
<g id="edge4" class="edge">
<title>arch/arm64/boot/dts/qcom/sm6350.dtsi&#45;&gt;include/dt&#45;bindings/interconnect/qcom,icc.h</title>
<path fill="none" stroke="black" d="M1094.96,-712C1114.8,-652.76 1180.25,-482.87 1299.61,-407.85 1310.84,-400.79 1323.01,-395.08 1335.68,-390.49"/>
<polygon fill="black" stroke="black" points="1336.63,-393.87 1345,-387.38 1334.41,-387.23 1336.63,-393.87"/>
</g>
<!-- arch/arm64/boot/dts/qcom/sm6350.dtsi&#45;&gt;include/dt&#45;bindings/interconnect/qcom,osm&#45;l3.h -->
<g id="edge6" class="edge">
<title>arch/arm64/boot/dts/qcom/sm6350.dtsi&#45;&gt;include/dt&#45;bindings/interconnect/qcom,osm&#45;l3.h</title>
<path fill="none" stroke="black" d="M1097.86,-712.08C1122.58,-660.44 1194.59,-526.11 1299.61,-466.85 1310.01,-460.98 1321.11,-456.09 1332.58,-452.03"/>
<polygon fill="black" stroke="black" points="1333.38,-455.46 1341.79,-449.01 1331.19,-448.81 1333.38,-455.46"/>
</g>
<!-- arch/arm64/boot/dts/qcom/sm6350.dtsi&#45;&gt;include/dt&#45;bindings/interconnect/qcom,sm6350.h -->
<g id="edge2" class="edge">
<title>arch/arm64/boot/dts/qcom/sm6350.dtsi&#45;&gt;include/dt&#45;bindings/interconnect/qcom,sm6350.h</title>
<path fill="none" stroke="black" d="M1102.39,-711.97C1132.59,-668.77 1208.6,-569.99 1299.61,-525.85 1311.01,-520.32 1323.11,-515.71 1335.54,-511.9"/>
<polygon fill="black" stroke="black" points="1336.44,-515.28 1345.09,-509.16 1334.51,-508.55 1336.44,-515.28"/>
</g>
<!-- arch/arm64/boot/dts/qcom/sm6350.dtsi&#45;&gt;include/dt&#45;bindings/interrupt&#45;controller/arm&#45;gic.h -->
<g id="edge18" class="edge">
<title>arch/arm64/boot/dts/qcom/sm6350.dtsi&#45;&gt;include/dt&#45;bindings/interrupt&#45;controller/arm&#45;gic.h</title>
<path fill="none" stroke="black" d="M1092.83,-712.17C1108.13,-646.29 1165.34,-440.29 1299.61,-348.85 1308.18,-343.01 1317.37,-338.07 1326.95,-333.89"/>
<polygon fill="black" stroke="black" points="1328.12,-337.2 1336.1,-330.22 1325.51,-330.7 1328.12,-337.2"/>
</g>
<!-- arch/arm64/boot/dts/qcom/sm6350.dtsi&#45;&gt;include/dt&#45;bindings/mailbox/qcom&#45;ipcc.h -->
<g id="edge28" class="edge">
<title>arch/arm64/boot/dts/qcom/sm6350.dtsi&#45;&gt;include/dt&#45;bindings/mailbox/qcom&#45;ipcc.h</title>
<path fill="none" stroke="black" d="M1110.01,-712.18C1146.06,-679.08 1222.16,-614.85 1299.61,-584.85 1317.55,-577.9 1336.83,-572.55 1356.3,-568.43"/>
<polygon fill="black" stroke="black" points="1356.84,-571.89 1365.97,-566.5 1355.47,-565.03 1356.84,-571.89"/>
</g>
<!-- arch/arm64/boot/dts/qcom/sm6350.dtsi&#45;&gt;include/dt&#45;bindings/phy/phy&#45;qcom&#45;qmp.h -->
<g id="edge8" class="edge">
<title>arch/arm64/boot/dts/qcom/sm6350.dtsi&#45;&gt;include/dt&#45;bindings/phy/phy&#45;qcom&#45;qmp.h</title>
<path fill="none" stroke="black" d="M1127.75,-712.45C1169.33,-691.81 1237.37,-660.63 1299.61,-643.85 1321.57,-637.93 1345.06,-633.21 1368.3,-629.44"/>
<polygon fill="black" stroke="black" points="1368.84,-632.9 1378.18,-627.9 1367.76,-625.98 1368.84,-632.9"/>
</g>
<!-- arch/arm64/boot/dts/qcom/sm6350.dtsi&#45;&gt;include/dt&#45;bindings/power/qcom&#45;rpmpd.h -->
<g id="edge1" class="edge">
<title>arch/arm64/boot/dts/qcom/sm6350.dtsi&#45;&gt;include/dt&#45;bindings/power/qcom&#45;rpmpd.h</title>
<path fill="none" stroke="black" d="M1200.72,-716.61C1232.66,-712.07 1267.49,-707.19 1299.61,-702.85 1329.02,-698.87 1360.62,-694.73 1390.57,-690.86"/>
<polygon fill="black" stroke="black" points="1390.99,-694.34 1400.47,-689.59 1390.1,-687.39 1390.99,-694.34"/>
</g>
<!-- arch/arm64/boot/dts/qcom/sm6350.dtsi&#45;&gt;include/dt&#45;bindings/soc/qcom,rpmh&#45;rsc.h -->
<g id="edge13" class="edge">
<title>arch/arm64/boot/dts/qcom/sm6350.dtsi&#45;&gt;include/dt&#45;bindings/soc/qcom,rpmh&#45;rsc.h</title>
<path fill="none" stroke="black" d="M1266.1,-732.85C1287.22,-732.85 1308.88,-732.85 1330.23,-732.85"/>
<polygon fill="black" stroke="black" points="1330.19,-736.35 1340.19,-732.85 1330.19,-729.35 1330.19,-736.35"/>
</g>
<!-- arch/arm64/boot/dts/qcom/sm6350.dtsi&#45;&gt;include/dt&#45;bindings/thermal/thermal.h -->
<g id="edge11" class="edge">
<title>arch/arm64/boot/dts/qcom/sm6350.dtsi&#45;&gt;include/dt&#45;bindings/thermal/thermal.h</title>
<path fill="none" stroke="black" d="M1200.72,-749.08C1232.66,-753.63 1267.49,-758.51 1299.61,-762.85 1330.86,-767.08 1364.57,-771.49 1396.16,-775.56"/>
<polygon fill="black" stroke="black" points="1395.37,-778.98 1405.74,-776.79 1396.26,-772.04 1395.37,-778.98"/>
</g>
<!-- arch/arm64/boot/dts/qcom/sm7225&#45;oneplus&#45;ebba.dts -->
<g id="node24" class="node">
<title>arch/arm64/boot/dts/qcom/sm7225&#45;oneplus&#45;ebba.dts</title>
<ellipse fill="none" stroke="black" cx="237.23" cy="-201.85" rx="237.23" ry="20.51"/>
<text text-anchor="middle" x="237.23" y="-199.05" font-family="Helvetica,Arial,sans-serif" font-size="14.00">arch/arm64/boot/dts/qcom/sm7225&#45;oneplus&#45;ebba.dts</text>
</g>
<!-- arch/arm64/boot/dts/qcom/sm7225&#45;oneplus&#45;ebba.dts&#45;&gt;include/dt&#45;bindings/pinctrl/qcom,pmic&#45;gpio.h -->
<g id="edge20" class="edge">
<title>arch/arm64/boot/dts/qcom/sm7225&#45;oneplus&#45;ebba.dts&#45;&gt;include/dt&#45;bindings/pinctrl/qcom,pmic&#45;gpio.h</title>
<path fill="none" stroke="black" d="M441.88,-212.48C465.02,-213.64 488.25,-214.79 510.47,-215.85 795.51,-229.5 1125.67,-243.87 1330.02,-252.6"/>
<polygon fill="black" stroke="black" points="1329.82,-256.1 1339.96,-253.02 1330.12,-249.1 1329.82,-256.1"/>
</g>
<!-- arch/arm64/boot/dts/qcom/pm6350.dtsi -->
<g id="node25" class="node">
<title>arch/arm64/boot/dts/qcom/pm6350.dtsi</title>
<ellipse fill="none" stroke="black" cx="1087.41" cy="-201.85" rx="178.9" ry="20.51"/>
<text text-anchor="middle" x="1087.41" y="-199.05" font-family="Helvetica,Arial,sans-serif" font-size="14.00">arch/arm64/boot/dts/qcom/pm6350.dtsi</text>
</g>
<!-- arch/arm64/boot/dts/qcom/sm7225&#45;oneplus&#45;ebba.dts&#45;&gt;arch/arm64/boot/dts/qcom/pm6350.dtsi -->
<g id="edge5" class="edge">
<title>arch/arm64/boot/dts/qcom/sm7225&#45;oneplus&#45;ebba.dts&#45;&gt;arch/arm64/boot/dts/qcom/pm6350.dtsi</title>
<path fill="none" stroke="black" d="M474.78,-201.85C608.12,-201.85 772.43,-201.85 897.16,-201.85"/>
<polygon fill="black" stroke="black" points="896.83,-205.35 906.83,-201.85 896.83,-198.35 896.83,-205.35"/>
</g>
<!-- arch/arm64/boot/dts/qcom/pm7250b.dtsi -->
<g id="node26" class="node">
<title>arch/arm64/boot/dts/qcom/pm7250b.dtsi</title>
<ellipse fill="none" stroke="black" cx="1087.41" cy="-142.85" rx="184.2" ry="20.51"/>
<text text-anchor="middle" x="1087.41" y="-140.05" font-family="Helvetica,Arial,sans-serif" font-size="14.00">arch/arm64/boot/dts/qcom/pm7250b.dtsi</text>
</g>
<!-- arch/arm64/boot/dts/qcom/sm7225&#45;oneplus&#45;ebba.dts&#45;&gt;arch/arm64/boot/dts/qcom/pm7250b.dtsi -->
<g id="edge7" class="edge">
<title>arch/arm64/boot/dts/qcom/sm7225&#45;oneplus&#45;ebba.dts&#45;&gt;arch/arm64/boot/dts/qcom/pm7250b.dtsi</title>
<path fill="none" stroke="black" d="M424.37,-188.9C571.79,-178.65 775.93,-164.45 918.41,-154.53"/>
<polygon fill="black" stroke="black" points="918.61,-158.03 928.34,-153.84 918.12,-151.05 918.61,-158.03"/>
</g>
<!-- arch/arm64/boot/dts/qcom/sm7225.dtsi -->
<g id="node27" class="node">
<title>arch/arm64/boot/dts/qcom/sm7225.dtsi</title>
<ellipse fill="none" stroke="black" cx="688.84" cy="-520.85" rx="178.37" ry="20.51"/>
<text text-anchor="middle" x="688.84" y="-518.05" font-family="Helvetica,Arial,sans-serif" font-size="14.00">arch/arm64/boot/dts/qcom/sm7225.dtsi</text>
</g>
<!-- arch/arm64/boot/dts/qcom/sm7225&#45;oneplus&#45;ebba.dts&#45;&gt;arch/arm64/boot/dts/qcom/sm7225.dtsi -->
<g id="edge24" class="edge">
<title>arch/arm64/boot/dts/qcom/sm7225&#45;oneplus&#45;ebba.dts&#45;&gt;arch/arm64/boot/dts/qcom/sm7225.dtsi</title>
<path fill="none" stroke="black" d="M267.39,-222.53C345.79,-278.16 561.15,-430.96 649.38,-493.56"/>
<polygon fill="black" stroke="black" points="647.33,-496.4 657.51,-499.34 651.38,-490.69 647.33,-496.4"/>
</g>
<!-- arch/arm64/boot/dts/qcom/pm6150l.dtsi -->
<g id="node28" class="node">
<title>arch/arm64/boot/dts/qcom/pm6150l.dtsi</title>
<ellipse fill="none" stroke="black" cx="1087.41" cy="-83.85" rx="181.02" ry="20.51"/>
<text text-anchor="middle" x="1087.41" y="-81.05" font-family="Helvetica,Arial,sans-serif" font-size="14.00">arch/arm64/boot/dts/qcom/pm6150l.dtsi</text>
</g>
<!-- arch/arm64/boot/dts/qcom/sm7225&#45;oneplus&#45;ebba.dts&#45;&gt;arch/arm64/boot/dts/qcom/pm6150l.dtsi -->
<g id="edge17" class="edge">
<title>arch/arm64/boot/dts/qcom/sm7225&#45;oneplus&#45;ebba.dts&#45;&gt;arch/arm64/boot/dts/qcom/pm6150l.dtsi</title>
<path fill="none" stroke="black" d="M338.23,-182.9C389.6,-173.5 453.27,-162.36 510.47,-153.85 657.17,-132.02 825.66,-112.14 942.33,-99.19"/>
<polygon fill="black" stroke="black" points="942.4,-102.71 951.95,-98.13 941.63,-95.75 942.4,-102.71"/>
</g>
<!-- arch/arm64/boot/dts/qcom/pm6350.dtsi&#45;&gt;include/dt&#45;bindings/input/input.h -->
<g id="edge16" class="edge">
<title>arch/arm64/boot/dts/qcom/pm6350.dtsi&#45;&gt;include/dt&#45;bindings/input/input.h</title>
<path fill="none" stroke="black" d="M1266.73,-201.85C1300.75,-201.85 1336.12,-201.85 1369.37,-201.85"/>
<polygon fill="black" stroke="black" points="1369.05,-205.35 1379.05,-201.85 1369.05,-198.35 1369.05,-205.35"/>
</g>
<!-- arch/arm64/boot/dts/qcom/pm6350.dtsi&#45;&gt;include/dt&#45;bindings/spmi/spmi.h -->
<g id="edge15" class="edge">
<title>arch/arm64/boot/dts/qcom/pm6350.dtsi&#45;&gt;include/dt&#45;bindings/spmi/spmi.h</title>
<path fill="none" stroke="black" d="M1200.72,-185.61C1232.66,-181.07 1267.49,-176.19 1299.61,-171.85 1333.72,-167.23 1370.76,-162.4 1404.78,-158.03"/>
<polygon fill="black" stroke="black" points="1405.22,-161.51 1414.69,-156.76 1404.33,-154.56 1405.22,-161.51"/>
</g>
<!-- arch/arm64/boot/dts/qcom/pm7250b.dtsi&#45;&gt;include/dt&#45;bindings/spmi/spmi.h -->
<g id="edge14" class="edge">
<title>arch/arm64/boot/dts/qcom/pm7250b.dtsi&#45;&gt;include/dt&#45;bindings/spmi/spmi.h</title>
<path fill="none" stroke="black" d="M1272.1,-142.85C1304.31,-142.85 1337.56,-142.85 1368.94,-142.85"/>
<polygon fill="black" stroke="black" points="1368.9,-146.35 1378.9,-142.85 1368.9,-139.35 1368.9,-146.35"/>
</g>
<!-- arch/arm64/boot/dts/qcom/pm7250b.dtsi&#45;&gt;include/dt&#45;bindings/iio/qcom,spmi&#45;vadc.h -->
<g id="edge10" class="edge">
<title>arch/arm64/boot/dts/qcom/pm7250b.dtsi&#45;&gt;include/dt&#45;bindings/iio/qcom,spmi&#45;vadc.h</title>
<path fill="none" stroke="black" d="M1202.09,-126.42C1233.65,-121.93 1267.95,-117.13 1299.61,-112.85 1329.02,-108.87 1360.62,-104.73 1390.57,-100.86"/>
<polygon fill="black" stroke="black" points="1390.99,-104.34 1400.47,-99.59 1390.1,-97.39 1390.99,-104.34"/>
</g>
<!-- arch/arm64/boot/dts/qcom/pm7250b.dtsi&#45;&gt;include/dt&#45;bindings/interrupt&#45;controller/irq.h -->
<g id="edge9" class="edge">
<title>arch/arm64/boot/dts/qcom/pm7250b.dtsi&#45;&gt;include/dt&#45;bindings/interrupt&#45;controller/irq.h</title>
<path fill="none" stroke="black" d="M1240.34,-131.23C1251.5,-126.72 1262.09,-121.02 1271.61,-113.85 1295.11,-96.14 1274.79,-69.66 1299.61,-53.85 1383.08,-0.69 1646.2,-47.36 1744.95,-53.85 1780.05,-56.16 1818.01,-60.45 1852.66,-65.08"/>
<polygon fill="black" stroke="black" points="1851.9,-68.51 1862.29,-66.39 1852.85,-61.57 1851.9,-68.51"/>
</g>
<!-- arch/arm64/boot/dts/qcom/sm7225.dtsi&#45;&gt;arch/arm64/boot/dts/qcom/sm6350.dtsi -->
<g id="edge12" class="edge">
<title>arch/arm64/boot/dts/qcom/sm7225.dtsi&#45;&gt;arch/arm64/boot/dts/qcom/sm6350.dtsi</title>
<path fill="none" stroke="black" d="M727.86,-541.18C800.46,-579.99 958.67,-664.56 1038.42,-707.19"/>
<polygon fill="black" stroke="black" points="1036.4,-710.09 1046.87,-711.71 1039.7,-703.91 1036.4,-710.09"/>
</g>
<!-- arch/arm64/boot/dts/qcom/pm6150l.dtsi&#45;&gt;include/dt&#45;bindings/spmi/spmi.h -->
<g id="edge25" class="edge">
<title>arch/arm64/boot/dts/qcom/pm6150l.dtsi&#45;&gt;include/dt&#45;bindings/spmi/spmi.h</title>
<path fill="none" stroke="black" d="M1201.26,-100.16C1233.06,-104.68 1267.68,-109.53 1299.61,-113.85 1333.72,-118.46 1370.76,-123.3 1404.78,-127.67"/>
<polygon fill="black" stroke="black" points="1404.33,-131.14 1414.69,-128.94 1405.22,-124.19 1404.33,-131.14"/>
</g>
<!-- arch/arm64/boot/dts/qcom/pm6150l.dtsi&#45;&gt;include/dt&#45;bindings/iio/qcom,spmi&#45;vadc.h -->
<g id="edge29" class="edge">
<title>arch/arm64/boot/dts/qcom/pm6150l.dtsi&#45;&gt;include/dt&#45;bindings/iio/qcom,spmi&#45;vadc.h</title>
<path fill="none" stroke="black" d="M1268.62,-83.85C1288.85,-83.85 1309.53,-83.85 1329.94,-83.85"/>
<polygon fill="black" stroke="black" points="1329.73,-87.35 1339.73,-83.85 1329.73,-80.35 1329.73,-87.35"/>
</g>
<!-- arch/arm64/boot/dts/qcom/pm6150l.dtsi&#45;&gt;include/dt&#45;bindings/interrupt&#45;controller/irq.h -->
<g id="edge30" class="edge">
<title>arch/arm64/boot/dts/qcom/pm6150l.dtsi&#45;&gt;include/dt&#45;bindings/interrupt&#45;controller/irq.h</title>
<path fill="none" stroke="black" d="M1139.97,-63.88C1182.15,-48.67 1243.76,-29 1299.61,-20.85 1495.46,7.74 1548.83,5.84 1744.95,-20.85 1800.21,-28.37 1861,-45.73 1905.78,-60.33"/>
<polygon fill="black" stroke="black" points="1904.49,-63.59 1915.08,-63.4 1906.68,-56.94 1904.49,-63.59"/>
</g>
</g>
</svg>
